<svg width="100" height="100" viewBox="0 0 100 100" fill="none" xmlns="http://www.w3.org/2000/svg">
<path d="M6.53078 0.258415C6.07321 0.467026 5.24126 1.13456 4.6589 1.76038L3.61897 2.88686L3.49418 31.4242L3.41098 59.9615H1.70549H0L0.166389 64.3422C0.291181 68.6395 0.332779 68.723 1.66389 70.058L2.99501 71.4348L17.8037 71.6434L32.5707 71.8521L31.406 72.9368C29.2429 74.9811 29.2013 74.9811 14.2679 74.9811H0.0831947V76.65V78.3188H14.4343C26.4559 78.3188 29.0765 78.1937 30.3661 77.693C31.198 77.3175 33.3195 75.6487 35.0666 73.9381C36.8136 72.2275 38.7271 70.6421 39.3511 70.3918C40.9734 69.8077 61.7304 69.8494 63.0616 70.4335C64.5175 71.1011 65.2246 72.9785 64.6007 74.5222C64.3095 75.148 63.6023 75.899 63.0616 76.1911C62.3544 76.4831 58.3195 76.65 51.0399 76.65H40.0166V78.3188V79.9877H67.2629H94.5507L95.5491 81.0307C97.1298 82.6161 96.7138 84.9108 94.6339 85.7452C92.0133 86.83 58.6522 95.8 55.574 96.259C49.6256 97.1768 43.5108 96.2173 33.4443 92.7127C30.3661 91.6696 30.3245 91.6696 15.2246 91.6696H0.0831947V93.3385V95.0073H14.975H29.8669L35.4409 96.8848C44.218 99.847 50.208 100.598 56.6556 99.555C58.1531 99.3463 67.5957 96.8848 77.6622 94.1312C97.629 88.624 98.3361 88.3319 99.4592 85.1611C100.208 83.0333 99.792 80.8221 98.3777 79.1115C96.3394 76.7334 95.8403 76.65 81.0316 76.65H67.4709L67.8869 75.5652C68.1364 74.9811 68.3028 73.8547 68.3028 73.1037V71.6852L82.6539 71.56L97.005 71.4348L98.3361 70.058C99.6672 68.723 99.7088 68.6395 99.8336 64.3422L100 59.9615H98.2945H96.589L96.5058 31.3825L96.381 2.80341L95.0083 1.46833L93.6772 0.0915298L50.4992 0.00808716C26.7887 -0.0336304 6.98835 0.0915298 6.53078 0.258415ZM92.7621 3.72128C93.1364 4.09677 93.2612 10.9808 93.2612 32.0917V59.9615H82.4459H71.6306V57.9172V55.9145L69.1348 55.3722C66.5557 54.8298 65.391 53.8702 65.391 52.3682C65.391 51.7007 65.8486 51.6173 69.3428 51.6173H73.2945V47.4451V43.273H74.6256C75.6656 43.273 76.4143 43.7319 78.1198 45.4008C80.1581 47.4034 80.2413 47.612 80.0749 49.2809C79.8253 51.4921 80.7404 53.453 82.4459 54.3291C85.9401 56.1231 89.9334 53.7868 89.9334 49.9484C89.9334 46.8193 87.4792 44.6915 84.2762 45.067C82.5707 45.2339 82.4459 45.1505 79.9085 42.6055C77.4126 40.0605 77.1631 39.9353 75.2912 39.9353H73.2945V38.2665V36.5976H75.2912C77.1631 36.5976 77.4126 36.4724 79.9085 33.9275C82.4459 31.3825 82.5707 31.299 84.2762 31.4659C87.4792 31.8414 89.9334 29.7136 89.9334 26.5845C89.9334 22.7462 85.9401 20.4098 82.4459 22.2038C80.7404 23.0799 79.8253 25.0408 80.0749 27.2521C80.2413 28.9209 80.1581 29.1295 78.1198 31.1321C76.4143 32.801 75.6656 33.2599 74.6256 33.2599H73.2945V27.4189V21.578H75.2912C77.1631 21.578 77.4126 21.4528 79.9085 18.9078C82.4459 16.3211 82.5707 16.2794 84.3178 16.488C85.6905 16.6131 86.4809 16.4463 87.5624 15.7787C91.8469 13.1503 89.975 6.55833 84.9418 6.55833C81.822 6.55833 79.7005 9.01987 80.0749 12.2324C80.2413 13.9013 80.1581 14.1099 78.1198 16.1125C76.4559 17.7396 75.6656 18.2403 74.6672 18.2403H73.3777L73.2113 13.8595C73.0865 9.56225 73.0449 9.47881 71.7138 8.14373L70.3827 6.76693H50H29.6173L28.2862 8.14373C26.9551 9.47881 26.9135 9.56225 26.7887 13.8595L26.6223 18.2403H25.3328C24.3344 18.2403 23.5441 17.7396 21.8802 16.1125C19.8419 14.1099 19.7587 13.9013 19.9251 12.2324C20.1747 10.0212 19.2596 8.06029 17.5541 7.18414C14.0599 5.39013 10.0666 7.72652 10.0666 11.5649C10.0666 14.694 12.5208 16.8217 15.7238 16.4463C17.4293 16.2794 17.5541 16.3628 20.0915 18.9078C22.5874 21.4528 22.8369 21.578 24.7088 21.578H26.7055V27.4189V33.2599H25.3744C24.3344 33.2599 23.5857 32.801 21.8802 31.1321C19.8419 29.1295 19.7587 28.9209 19.9251 27.2521C20.1747 25.0408 19.2596 23.0799 17.5541 22.2038C14.0599 20.4098 10.0666 22.7462 10.0666 26.5845C10.0666 29.7136 12.5208 31.8414 15.7238 31.4659C17.4293 31.299 17.5541 31.3825 20.0915 33.9275C22.5874 36.4724 22.8369 36.5976 24.7088 36.5976H26.7055V38.2665V39.9353H24.7088C22.8369 39.9353 22.5874 40.0605 20.0915 42.6055C17.5541 45.1505 17.4293 45.2339 15.7238 45.067C13.5191 44.8167 11.5641 45.7346 10.6905 47.4451C9.401 49.9484 10.2745 53.1609 12.5624 54.3291C16.3062 56.29 20.4243 53.4947 19.9667 49.3226C19.7587 47.612 19.8419 47.4034 21.8802 45.4008C23.5857 43.7319 24.3344 43.273 25.3744 43.273H26.7055V47.4451V51.6173H30.6572C34.1514 51.6173 34.609 51.7007 34.609 52.3682C34.609 53.8702 33.4443 54.8298 30.8652 55.3722L28.3694 55.9145V57.9172V59.9615H17.5541H6.73877V32.0917C6.73877 10.9808 6.86356 4.09677 7.23794 3.72128C7.94509 3.01202 92.0549 3.01202 92.7621 3.72128ZM16.0566 10.5636C16.4309 10.8973 16.7221 11.3563 16.7221 11.5649C16.7221 12.0238 15.5158 13.2337 15.0582 13.2337C14.6007 13.2337 13.3943 12.0238 13.3943 11.5649C13.3943 11.1059 14.6007 9.89602 15.0582 9.89602C15.2662 9.89602 15.7238 10.1881 16.0566 10.5636ZM85.9401 10.5636C86.3145 10.8973 86.6057 11.3563 86.6057 11.5649C86.6057 11.7735 86.3145 12.2324 85.9401 12.5662C85.6073 12.9417 85.1497 13.2337 84.9418 13.2337C84.7338 13.2337 84.2762 12.9417 83.9434 12.5662C83.569 12.2324 83.2779 11.7735 83.2779 11.5649C83.2779 11.3563 83.569 10.8973 83.9434 10.5636C84.2762 10.1881 84.7338 9.89602 84.9418 9.89602C85.1497 9.89602 85.6073 10.1881 85.9401 10.5636ZM66.6389 16.5714V18.2403H50H33.3611V16.5714V14.9026H50H66.6389V16.5714ZM66.6389 24.9157V26.5845H50H33.3611V24.9157V23.2468H50H66.6389V24.9157ZM16.0566 25.5832C16.4309 25.917 16.7221 26.3759 16.7221 26.5845C16.7221 27.0434 15.5158 28.2534 15.0582 28.2534C14.6007 28.2534 13.3943 27.0434 13.3943 26.5845C13.3943 26.1256 14.6007 24.9157 15.0582 24.9157C15.2662 24.9157 15.7238 25.2077 16.0566 25.5832ZM85.9401 25.5832C86.3145 25.917 86.6057 26.3759 86.6057 26.5845C86.6057 26.7931 86.3145 27.2521 85.9401 27.5858C85.6073 27.9613 85.1497 28.2534 84.9418 28.2534C84.7338 28.2534 84.2762 27.9613 83.9434 27.5858C83.569 27.2521 83.2779 26.7931 83.2779 26.5845C83.2779 26.3759 83.569 25.917 83.9434 25.5832C84.2762 25.2077 84.7338 24.9157 84.9418 24.9157C85.1497 24.9157 85.6073 25.2077 85.9401 25.5832ZM66.6389 33.2599V34.9288H50H33.3611V33.2599V31.5911H50H66.6389V33.2599ZM16.0566 48.9471C16.4309 49.2809 16.7221 49.7398 16.7221 49.9484C16.7221 50.4073 15.5158 51.6173 15.0582 51.6173C14.6007 51.6173 13.3943 50.4073 13.3943 49.9484C13.3943 49.4895 14.6007 48.2796 15.0582 48.2796C15.2662 48.2796 15.7238 48.5716 16.0566 48.9471ZM85.9401 48.9471C86.3145 49.2809 86.6057 49.7398 86.6057 49.9484C86.6057 50.157 86.3145 50.6159 85.9401 50.9497C85.6073 51.3252 85.1497 51.6173 84.9418 51.6173C84.4842 51.6173 83.2779 50.4073 83.2779 49.9484C83.2779 49.7398 83.569 49.2809 83.9434 48.9471C84.2762 48.5716 84.7338 48.2796 84.9418 48.2796C85.1497 48.2796 85.6073 48.5716 85.9401 48.9471ZM52.787 53.9536C54.4925 54.7881 56.1564 56.8324 56.4892 58.6264L56.7804 59.9615H50H43.2612L43.5108 58.6264C44.3012 54.5377 49.0017 52.2014 52.787 53.9536ZM96.589 65.1349C96.589 68.4309 97.1714 68.3057 80.8236 68.3057C67.2213 68.3057 66.3062 68.264 64.7671 67.4713C63.228 66.6786 62.3128 66.6369 51.2479 66.6369C40.3494 66.6369 39.2679 66.7203 37.5624 67.4713C35.8569 68.264 34.817 68.3057 20.2579 68.3057C2.70383 68.3057 3.41098 68.4309 3.41098 65.1349V63.2992H50H96.589V65.1349Z" fill="black"/>
</svg>
