<svg width="101" height="101" viewBox="0 0 101 101" fill="none" xmlns="http://www.w3.org/2000/svg">
<path d="M46.1667 1.41638C45.7917 1.91623 45.5 2.54103 45.5 2.79095C45.5 2.99922 45.2917 3.87395 45.0833 4.70702C44.7083 6.03994 44.4167 6.28986 43.125 6.53978C41.75 6.7897 41.4583 6.66474 39.9167 5.12356C38.9583 4.16553 37.7917 3.41576 37.3333 3.41576C36.875 3.41576 35.2083 4.20718 33.625 5.20686C30.375 7.16458 30.0417 7.8727 31.0417 10.7051C31.625 12.3296 31.625 12.4129 30.4167 13.7042L29.1667 14.9955L27.3333 14.3707C24.4583 13.4126 23.875 13.7042 21.875 16.9532C20.875 18.536 20.0833 20.2022 20.0833 20.6604C20.0833 21.1186 20.8333 22.2849 21.7917 23.2429C23.3333 24.7841 23.4583 25.0757 23.2083 26.4502C22.9583 27.7415 22.7083 28.0331 21.375 28.408C20.5417 28.6162 19.625 28.8245 19.3333 28.8245C19.0833 28.8245 18.4583 29.1994 18 29.6576C17.2917 30.3657 17.1667 31.0321 17.1667 33.8229C17.1667 36.6137 17.2917 37.2802 18 37.9883C18.4583 38.4465 19.0833 38.8214 19.375 38.8214C19.625 38.8214 20.5417 39.0296 21.375 39.2379C22.7083 39.6128 22.9583 39.9044 23.2083 41.1956C23.4583 42.5702 23.3333 42.8618 21.7917 44.403C20 46.1941 19.75 47.0271 20.5417 48.485C20.9583 49.2348 20.5833 49.7346 17.4167 52.942L13.8333 56.5242V63.4803V70.4365L11.875 71.3112C9.25001 72.4775 7.70834 73.977 6.50001 76.5179C5.16667 79.3504 5.20834 81.8496 6.66667 84.7237L7.79167 87.0146L5.45834 88.0976C2.08334 89.6805 0.833341 91.7215 0.583341 95.9702C0.458341 98.2195 0.541674 99.4274 0.916674 99.844C1.37501 100.385 3.45834 100.469 15.4583 100.469C25.8333 100.469 29.625 100.344 30 99.9689C30.2917 99.6773 30.5 98.3028 30.5 96.6783C30.5 94.429 30.2917 93.471 29.3333 91.6798C28.3333 89.7638 27.7917 89.2223 25.7083 88.1809L23.2083 86.9313L24.375 84.682C25.7917 81.8079 25.8333 79.3504 24.5 76.5179C23.2917 73.977 21.75 72.4775 19.125 71.3112L17.1667 70.4365V64.1051V57.7321L20 54.9413C22.6667 52.3171 22.8333 52.1922 23.3333 52.9836C23.9583 53.9833 25.1667 54.0249 27.5833 53.1919C29.3333 52.5671 29.3333 52.5671 30.5 53.8167C31.6667 55.0663 31.6667 55.1079 31.0833 56.9407C30.0833 59.8565 30.3333 60.4396 33.625 62.439C35.2083 63.4387 36.875 64.2301 37.3333 64.2301C37.7917 64.2301 38.9583 63.4803 39.9167 62.5223C41.4583 60.9811 41.75 60.8561 43.1667 61.1061C44.5 61.356 44.7083 61.6059 45.0833 63.1471C45.75 65.8962 46.4583 66.9376 47.7083 67.0625C48.7083 67.1875 48.8333 67.3541 48.8333 68.812C48.8333 70.3532 48.7083 70.4781 46.875 71.3112C44.25 72.4775 42.7083 73.977 41.5 76.5179C40.125 79.392 40.2083 81.8496 41.7083 84.807C42.75 86.8897 42.8333 87.2229 42.2083 87.3895C40.1667 88.0143 37.9167 89.5139 36.9167 90.9717C35.9583 92.3047 35.75 93.1794 35.5833 95.8869C35.4583 98.1778 35.5417 99.4274 35.9167 99.844C36.375 100.385 38.4583 100.469 50.4583 100.469C60.8333 100.469 64.625 100.344 65 99.9689C65.2917 99.6773 65.5 98.3028 65.5 96.6783C65.5 94.429 65.2917 93.471 64.3333 91.6798C63.3333 89.7638 62.7917 89.2223 60.7083 88.1809L58.2083 86.9313L59.375 84.682C60.7917 81.8079 60.8333 79.3504 59.5 76.5179C58.2917 73.977 56.75 72.4775 54.1667 71.3112C52.2917 70.4781 52.1667 70.3532 52.1667 68.8536C52.1667 67.3958 52.2917 67.2292 53.4167 66.9792C54.75 66.7293 55.1667 66.1045 55.9167 63.1471C56.2917 61.6059 56.5 61.356 57.8333 61.1061C59.25 60.8561 59.5417 60.9811 61.0833 62.5223C62.0417 63.4803 63.2083 64.2301 63.625 64.2301C64.0833 64.2301 65.7917 63.397 67.375 62.439C70.6667 60.4396 70.9167 59.8565 69.9167 56.8574L69.2917 54.983L70.4583 53.775C71.6667 52.6087 71.7083 52.5671 73.4167 53.1919C75.8333 54.0249 77.0417 53.9833 77.6667 52.9836C78.1667 52.1922 78.3333 52.3171 81 54.9413L83.8333 57.7321V64.1051V70.4365L81.875 71.3112C79.25 72.4775 77.7083 73.977 76.5 76.5179C75.1667 79.3504 75.2083 81.8079 76.6667 84.682L77.7917 86.9313L75.2917 88.1809C73.2083 89.2223 72.6667 89.7638 71.6667 91.6798C70.7083 93.471 70.5 94.429 70.5 96.6783C70.5 98.3028 70.7083 99.6773 71 99.9689C71.7083 100.677 99.2917 100.677 100 99.9689C100.292 99.6773 100.5 98.3028 100.5 96.6783C100.5 94.429 100.292 93.471 99.3333 91.6798C98.3333 89.7638 97.7917 89.2223 95.7083 88.1809L93.2083 86.9313L94.375 84.682C95.7917 81.8079 95.8333 79.3504 94.5 76.5179C93.2917 73.977 91.75 72.4775 89.1667 71.3112L87.1667 70.4365V63.4803V56.5242L83.5833 52.942C80.4167 49.7346 80.0417 49.2348 80.4583 48.485C81.25 47.0271 81 46.1941 79.2083 44.403C77.6667 42.8618 77.5417 42.5702 77.7917 41.1956C78.0417 39.9044 78.2917 39.6128 79.625 39.2379C80.4583 39.0296 81.375 38.8214 81.6667 38.8214C81.9167 38.8214 82.5417 38.4465 83 37.9883C83.7083 37.2802 83.8333 36.6137 83.8333 33.8229C83.8333 31.0321 83.7083 30.3657 83 29.6576C82.5417 29.1994 81.9167 28.8245 81.6667 28.8245C81.375 28.8245 80.4583 28.6162 79.625 28.408C78.2917 28.0331 78.0417 27.7415 77.7917 26.4502C77.5417 25.0757 77.6667 24.7841 79.2083 23.2429C80.1667 22.2849 80.9167 21.1186 80.9167 20.702C80.9167 20.2438 80.0833 18.536 79.125 16.9532C77.1667 13.6626 76.5417 13.4126 73.625 14.4123C71.7917 14.9955 71.75 14.9955 70.5417 13.8292L69.25 12.6629L69.9167 10.7885C70.9167 7.78939 70.6667 7.20624 67.375 5.20686C65.7917 4.20718 64.125 3.41576 63.6667 3.41576C63.2083 3.41576 62.0417 4.16553 61.0833 5.12356C59.5417 6.66474 59.25 6.7897 57.875 6.53978C56.5833 6.28986 56.2917 6.03994 55.9167 4.70702C55.7083 3.87395 55.5 2.95757 55.5 2.66599C55.5 2.41607 55.125 1.79127 54.6667 1.33308C53.9583 0.624962 53.2917 0.5 50.3333 0.5C47.1667 0.5 46.75 0.583305 46.1667 1.41638ZM48.1432 3.8323C47.8515 4.16553 48.5417 4.91529 48.4583 4.87363C48.25 4.62371 48.875 3.8323 49.2917 3.8323C49.5 3.8323 48.4349 3.49907 48.1432 3.8323ZM35.375 13.4959C35.25 13.8292 36.5 13.4582 36.5 13C36.4583 12.5418 35.2083 12.5379 35.3333 12.7045C35.4583 12.8295 35.5 13.2044 35.375 13.4959ZM54.7917 16.1201C58.2917 17.0365 61 18.536 63.4167 20.9103C69.3333 26.8668 70.4583 35.864 66.125 43.2366L64.9583 45.1944L64.125 43.5699C63.0417 41.3622 61.1667 39.4878 59.2083 38.6131C57.5417 37.8217 57.25 37.4051 58.0417 36.9053C58.9583 36.3638 60.5 32.365 60.5 30.4906C60.5 28.2413 59 24.909 57.3333 23.3262C52.25 18.5777 44.5 20.1605 41.5 26.5335C40.2083 29.241 40.2083 31.7402 41.5 34.4894C42.0417 35.6557 42.7083 36.7803 42.9583 36.9053C43.75 37.4051 43.4583 37.8217 41.7917 38.6131C39.8333 39.4878 37.9583 41.3622 36.875 43.5699L36.0417 45.1944L34.875 43.2366C28.625 32.5317 34.0417 19.3691 46.0417 16.1201C48.9167 15.3704 51.875 15.3704 54.7917 16.1201ZM69.7083 17.8696C70.25 18.536 72.125 18.5415 71.5 18C72.4167 17.2919 70 17.0833 70 17C70 16.6668 69.1667 17.2031 69.7083 17.8696ZM30.375 18.661C30.25 18.786 29.875 18.8276 29.5833 18.7027C29.25 18.5777 29.5417 19.5 30 19.5C30.4583 19.4583 30.5417 18.536 30.375 18.661ZM71.625 18.661C71.5 18.786 71.125 18.8276 70.8333 18.7027C70.5 18.5777 70.5417 19.5 71 19.5C71.4583 19.4583 71.7917 18.536 71.625 18.661ZM32 21C31.7083 21.4165 32.3333 22.0349 32.2083 21.9516C32.0417 21.785 32.9583 20.4938 33.25 20.4938C33.3333 20.4938 32.2917 20.5418 32 21ZM53.125 24.4092C57.4167 26.2003 58.4583 31.7819 55.125 35.1142C52.4167 37.8217 48.5833 37.8217 45.875 35.1142C40.7083 29.9908 46.4167 21.5768 53.125 24.4092ZM72.0417 30.5739C71.9167 30.9072 74 30.9582 74 30.5C73.9583 30.0418 71.875 29.6159 72 29.7825C72.125 29.9075 72.1667 30.2824 72.0417 30.5739ZM57.5 41.5705C59.0417 42.3203 59.9583 43.1533 60.6667 44.3613C62.4167 47.3604 62.2917 47.9852 59.6667 49.568C56.5417 51.4424 54.6667 51.9006 50.5 51.9006C46.3333 51.9006 44.4583 51.4424 41.3333 49.568C38.7083 47.9852 38.5833 47.3604 40.3333 44.3613C41.0417 43.1533 41.9583 42.3203 43.5 41.5705C45.4583 40.5708 46.125 40.4875 50.5 40.4875C54.875 40.4875 55.5417 40.5708 57.5 41.5705ZM71.625 49.0682C71.5 49.1931 71.125 49.2348 70.8333 49.1098C70.5 48.9849 71.0417 50 71.5 50C71.9583 49.9583 71.7917 48.9432 71.625 49.0682ZM37.5 54.5C38.0417 55.1665 35.2083 53.5668 34.5833 53.0253C34.1667 52.7337 33.5 56.0833 33.5 56C37 58.7908 38.2917 57.6414 37.5 54.5ZM33 54C32.875 54.3332 35.125 54.9413 35.125 54.4831C35.0833 54.0249 35.2083 53.775 35.3333 53.9416C35.4583 54.0666 33.125 53.7084 33 54ZM47.4583 55.3162C47.3333 55.4412 46.9583 55.4828 46.6667 55.3579C46.3333 55.2329 46.5417 56 47 56C47.4583 55.9583 47.625 55.1912 47.4583 55.3162ZM49.4583 63.7719C49.2083 63.9802 48.4167 63.3554 48.4167 62.9388C48.4167 62.7306 48.1667 63.7084 48.5 64C48.8333 64.2916 49.5 63.6886 49.4583 63.7719ZM52.375 63.3554C52.25 63.6053 51.9167 63.8136 51.7083 63.8136C51.5 63.8136 52.7083 64.8332 53 64.5C53.5833 63.8335 52.8333 62.6889 52.375 63.3554ZM19.5 75.2683C24.2083 78.8505 22.1667 86.3482 16.25 87.0146C13.8333 87.3062 11.75 86.3898 10.25 84.3905C9.25001 83.0992 9.04167 82.4327 9.04167 80.475C9.04167 78.5589 9.25001 77.8508 10.1667 76.6429C12.5 73.5605 16.5 72.9774 19.5 75.2683ZM53.125 74.3936C57.4167 76.1847 58.4583 81.7663 55.125 85.0986C52.4167 87.8061 48.5833 87.8061 45.875 85.0986C40.7083 79.9752 46.4167 71.5611 53.125 74.3936ZM88.125 74.3936C92.4167 76.1847 93.4583 81.7663 90.125 85.0986C87.4167 87.8061 83.5833 87.8061 80.875 85.0986C75.7083 79.9752 81.4167 71.5611 88.125 74.3936ZM25.5417 91.9714C26.5 92.9295 26.9167 93.8042 27.0417 95.2204L27.2917 97.1365H15.5H3.70834L3.95834 95.2204C4.16667 93.2627 5.37501 91.5549 6.95834 90.8468C7.41667 90.6802 11.5 90.5552 16 90.5969L24.25 90.6802L25.5417 91.9714ZM60.5417 91.9714C61.5 92.9295 61.9167 93.8042 62.0417 95.2204L62.2917 97.1365H50.5H38.7083L38.9583 95.2204C39.1667 93.2627 40.375 91.5549 41.9583 90.8468C42.4167 90.6802 46.5 90.5552 51 90.5969L59.25 90.6802L60.5417 91.9714ZM95.5417 91.9714C96.5 92.9295 96.9167 93.8042 97.0417 95.2204L97.2917 97.1365H85.5H73.7083L73.9583 95.2204C74.1667 93.2627 75.375 91.5549 76.9583 90.8468C77.4167 90.6802 81.5 90.5552 86 90.5969L94.25 90.6802L95.5417 91.9714Z" fill="black"/>
</svg>
