<svg width="100" height="100" viewBox="0 0 100 100" fill="none" xmlns="http://www.w3.org/2000/svg">
<path d="M6.93548 6.97581L0 13.9113V55.9677V98.0242L1.00806 98.9919L1.97581 100H32.2581H62.5403L63.5081 98.9919L64.5161 98.0242V72.1774C64.5161 51.8145 64.6371 46.371 65.0403 46.371C65.2823 46.371 71.6532 46.8548 79.1935 47.4194C94.1129 48.5887 94.7581 48.5484 97.2177 46.4919C99.4355 44.5968 100 42.7823 100 37.0968C100 31.4113 99.4355 29.5968 97.2177 27.7016C94.7581 25.6452 94.1129 25.6048 79.1935 26.7742C71.6532 27.3387 65.2823 27.8226 65.0403 27.8226C64.6371 27.8226 64.5161 24.9597 64.5161 14.9194V1.97581L63.5081 1.00806L62.5403 0H38.2258H13.9113L6.93548 6.97581ZM61.2903 15.7258V28.2258H60.4032C59.879 28.2258 57.2984 28.4274 54.6371 28.6694C50.3226 29.0323 49.1532 29.3145 43.629 31.3307C36.9758 33.7903 35.4839 34.8387 35.4839 37.1371C35.4839 39.3145 37.1774 40.5242 43.5484 42.9032C48.871 44.879 49.879 45.121 54.5564 45.5242C57.4194 45.7661 60.0806 45.9677 60.5242 45.9677C61.25 45.9677 61.2903 46.2903 61.2903 52.0161V58.0645H32.2581H3.22581V37.0968V16.129H4.83871H6.45161V19.3548V22.5807H32.2581H58.0645V14.5161V6.45161H37.0968H16.129V4.83871V3.22581H38.7097H61.2903V15.7258ZM13.3065 9.47581V13.3065H9.47581C6.73387 13.3065 5.64516 13.1855 5.64516 12.8226C5.64516 12.1371 12.1371 5.64516 12.7823 5.64516C13.1855 5.64516 13.3065 6.65323 13.3065 9.47581ZM95.7661 30.2419L96.9758 31.4516V37.0968V42.7016L95.8064 43.9113C94.5968 45.1613 92.2581 45.8468 90.7258 45.3629C89.9597 45.121 89.9193 44.7984 89.9193 37.0968C89.9193 31.0887 90.0403 29.0323 90.4435 28.871C90.6855 28.75 91.7339 28.75 92.7419 28.8307C94.0726 28.9919 94.879 29.3952 95.7661 30.2419ZM87.0968 37.0968V44.7581H85.4839H83.871V37.0968V29.4355H85.4839H87.0968V37.0968ZM48.3871 37.0565V41.0887L46.8952 40.5645L45.3629 40.0403V37.0968V34.1532L46.7742 33.629C47.5403 33.3468 48.2258 33.1048 48.3064 33.1048C48.3468 33.0645 48.3871 34.879 48.3871 37.0565ZM41.9355 37.0565V38.6694L40.4435 38.1452C38.1048 37.3387 38.5887 36.4919 41.8548 35.5242C41.8952 35.4839 41.9355 36.2097 41.9355 37.0565ZM56.8145 62.0161C52.0161 65.7258 32.5806 79.8387 32.2581 79.8387C31.9355 79.8387 12.5 65.7258 7.70161 62.0161C6.77419 61.2903 7.37903 61.2903 32.2581 61.2903C57.1371 61.2903 57.7419 61.2903 56.8145 62.0161ZM20.8468 75.9677C21.25 76.3306 19.2742 78.5081 12.2984 85.4839L3.22581 94.5565V78.75V62.9436L11.8145 69.2339C16.4919 72.7016 20.6048 75.7258 20.8468 75.9677ZM61.2097 86.4919L61.0887 94.3548L52.0968 85.3629L43.1048 76.371L52.0968 69.7177L61.0887 63.0645L61.2097 70.8468C61.25 75.121 61.25 82.1774 61.2097 86.4919ZM28.3468 81.4919L32.2581 84.3548L36.1694 81.4919C38.3468 79.9194 40.2823 78.629 40.5242 78.629C40.7661 78.629 45 82.7016 50 87.7016L59.0726 96.7742H32.2581H5.44355L14.5161 87.7016C19.5161 82.7016 23.75 78.629 23.9919 78.629C24.2339 78.629 26.1694 79.9194 28.3468 81.4919Z" fill="black"/>
</svg>
